<mxfile host="app.diagrams.net" modified="2024-04-09T07:23:28.922Z" agent="Mozilla/5.0 (Windows NT 10.0; Win64; x64) AppleWebKit/537.36 (KHTML, like Gecko) Chrome/123.0.0.0 Safari/537.36" etag="T2sDuv7oQzhDRHhJzipX" version="24.2.2" type="github">
  <diagram name="Страница 1" id="ufSTGprs4LsOGQLuZF8g">
    <mxGraphModel dx="1434" dy="778" grid="0" gridSize="10" guides="1" tooltips="1" connect="1" arrows="1" fold="1" page="1" pageScale="1" pageWidth="827" pageHeight="1169" background="#ffffff" math="0" shadow="0">
      <root>
        <mxCell id="0" />
        <mxCell id="1" parent="0" />
        <mxCell id="TqyM-eb_YKYfIrLDZzXM-1" value="База данных" style="rounded=0;whiteSpace=wrap;html=1;fillColor=#6a00ff;fontColor=#ffffff;strokeColor=#3700CC;" parent="1" vertex="1">
          <mxGeometry x="142" y="375" width="120" height="60" as="geometry" />
        </mxCell>
        <mxCell id="TqyM-eb_YKYfIrLDZzXM-2" value="" style="rounded=0;whiteSpace=wrap;html=1;fillColor=#dae8fc;strokeColor=#6c8ebf;" parent="1" vertex="1">
          <mxGeometry x="265" y="215" width="225" height="121" as="geometry" />
        </mxCell>
        <mxCell id="TqyM-eb_YKYfIrLDZzXM-4" value="" style="endArrow=classic;startArrow=classic;html=1;rounded=0;entryX=0;entryY=0.5;entryDx=0;entryDy=0;exitX=0.5;exitY=0;exitDx=0;exitDy=0;fillColor=#ffe6cc;strokeColor=#d79b00;" parent="1" source="TqyM-eb_YKYfIrLDZzXM-1" target="TqyM-eb_YKYfIrLDZzXM-2" edge="1">
          <mxGeometry width="50" height="50" relative="1" as="geometry">
            <mxPoint x="148" y="304" as="sourcePoint" />
            <mxPoint x="198" y="254" as="targetPoint" />
            <Array as="points">
              <mxPoint x="202" y="276" />
            </Array>
          </mxGeometry>
        </mxCell>
        <mxCell id="TqyM-eb_YKYfIrLDZzXM-5" value="&lt;font color=&quot;#000000&quot;&gt;Веб интерфейс&lt;/font&gt;" style="rounded=0;whiteSpace=wrap;html=1;fillColor=#e1d5e7;strokeColor=#9673a6;" parent="1" vertex="1">
          <mxGeometry x="563" y="279.5" width="120" height="60" as="geometry" />
        </mxCell>
        <mxCell id="TqyM-eb_YKYfIrLDZzXM-6" value="" style="rounded=0;whiteSpace=wrap;html=1;fillColor=#e1d5e7;strokeColor=#9673a6;align=center;" parent="1" vertex="1">
          <mxGeometry x="473" y="350" width="210" height="105" as="geometry" />
        </mxCell>
        <mxCell id="TqyM-eb_YKYfIrLDZzXM-7" value="" style="endArrow=classic;startArrow=classic;html=1;rounded=0;entryX=0;entryY=0.5;entryDx=0;entryDy=0;exitX=1;exitY=0.5;exitDx=0;exitDy=0;fillColor=#ffe6cc;strokeColor=#d79b00;" parent="1" source="ZVdsV8nFcNDab4a7GRcG-9" target="TqyM-eb_YKYfIrLDZzXM-5" edge="1">
          <mxGeometry width="50" height="50" relative="1" as="geometry">
            <mxPoint x="291" y="154" as="sourcePoint" />
            <mxPoint x="405" y="86" as="targetPoint" />
            <Array as="points" />
          </mxGeometry>
        </mxCell>
        <mxCell id="TqyM-eb_YKYfIrLDZzXM-8" value="" style="endArrow=classic;startArrow=classic;html=1;rounded=0;entryX=0;entryY=0.5;entryDx=0;entryDy=0;exitX=0.5;exitY=1;exitDx=0;exitDy=0;fillColor=#ffe6cc;strokeColor=#d79b00;" parent="1" source="ZVdsV8nFcNDab4a7GRcG-10" target="ZVdsV8nFcNDab4a7GRcG-6" edge="1">
          <mxGeometry width="50" height="50" relative="1" as="geometry">
            <mxPoint x="338" y="480" as="sourcePoint" />
            <mxPoint x="452" y="412" as="targetPoint" />
            <Array as="points">
              <mxPoint x="331" y="359" />
            </Array>
          </mxGeometry>
        </mxCell>
        <mxCell id="TqyM-eb_YKYfIrLDZzXM-9" value="" style="rounded=0;whiteSpace=wrap;html=1;fillColor=#d5e8d4;strokeColor=#82b366;" parent="1" vertex="1">
          <mxGeometry x="473" y="490" width="210" height="92" as="geometry" />
        </mxCell>
        <mxCell id="TqyM-eb_YKYfIrLDZzXM-10" value="" style="endArrow=classic;startArrow=classic;html=1;rounded=0;entryX=0.5;entryY=0;entryDx=0;entryDy=0;fillColor=#ffe6cc;strokeColor=#d79b00;exitX=0.5;exitY=1;exitDx=0;exitDy=0;" parent="1" source="ZVdsV8nFcNDab4a7GRcG-1" target="ZVdsV8nFcNDab4a7GRcG-2" edge="1">
          <mxGeometry width="50" height="50" relative="1" as="geometry">
            <mxPoint x="578" y="453" as="sourcePoint" />
            <mxPoint x="449" y="478" as="targetPoint" />
            <Array as="points" />
          </mxGeometry>
        </mxCell>
        <mxCell id="nKgSE3EkpWKNaFI7mvdM-41" value="Cистема инерциальной навигации" style="swimlane;whiteSpace=wrap;html=1;" parent="1" vertex="1">
          <mxGeometry x="39" y="1944" width="296" height="311" as="geometry" />
        </mxCell>
        <mxCell id="nKgSE3EkpWKNaFI7mvdM-42" value="Лингвистическое обеспечение" style="swimlane;whiteSpace=wrap;html=1;" parent="nKgSE3EkpWKNaFI7mvdM-41" vertex="1">
          <mxGeometry x="19" y="36" width="260" height="67" as="geometry" />
        </mxCell>
        <mxCell id="nKgSE3EkpWKNaFI7mvdM-43" value="C/C++" style="text;html=1;align=left;verticalAlign=middle;resizable=0;points=[];autosize=1;strokeColor=none;fillColor=none;" parent="nKgSE3EkpWKNaFI7mvdM-42" vertex="1">
          <mxGeometry y="33" width="53" height="26" as="geometry" />
        </mxCell>
        <mxCell id="nKgSE3EkpWKNaFI7mvdM-46" value="Методологическое обеспечение" style="swimlane;whiteSpace=wrap;html=1;" parent="nKgSE3EkpWKNaFI7mvdM-41" vertex="1">
          <mxGeometry x="17.5" y="112" width="259" height="103" as="geometry" />
        </mxCell>
        <mxCell id="nKgSE3EkpWKNaFI7mvdM-47" value="Документация esp8266" style="text;html=1;align=left;verticalAlign=middle;resizable=0;points=[];autosize=1;strokeColor=none;fillColor=none;" parent="nKgSE3EkpWKNaFI7mvdM-46" vertex="1">
          <mxGeometry y="35.75" width="147" height="26" as="geometry" />
        </mxCell>
        <mxCell id="t0PKNFKbj3jleWJ-KIZI-4" value="Документация акселерометра mpu6050" style="text;html=1;strokeColor=none;fillColor=none;align=left;verticalAlign=middle;whiteSpace=wrap;rounded=0;" parent="nKgSE3EkpWKNaFI7mvdM-46" vertex="1">
          <mxGeometry y="64" width="239" height="30" as="geometry" />
        </mxCell>
        <mxCell id="ZVdsV8nFcNDab4a7GRcG-26" value="Техническое обеспечение" style="swimlane;whiteSpace=wrap;html=1;" parent="nKgSE3EkpWKNaFI7mvdM-41" vertex="1">
          <mxGeometry x="17.5" y="224" width="258.5" height="69" as="geometry" />
        </mxCell>
        <mxCell id="ZVdsV8nFcNDab4a7GRcG-32" value="Микроконтроллер esp8266,&lt;br&gt;Акселерометр mpu6050" style="text;html=1;align=left;verticalAlign=middle;resizable=0;points=[];autosize=1;strokeColor=none;fillColor=none;" parent="ZVdsV8nFcNDab4a7GRcG-26" vertex="1">
          <mxGeometry y="23" width="171" height="41" as="geometry" />
        </mxCell>
        <mxCell id="nKgSE3EkpWKNaFI7mvdM-48" style="edgeStyle=orthogonalEdgeStyle;rounded=0;orthogonalLoop=1;jettySize=auto;html=1;entryX=0.5;entryY=0;entryDx=0;entryDy=0;fillColor=#ffe6cc;strokeColor=#d79b00;" parent="1" source="nKgSE3EkpWKNaFI7mvdM-49" target="nKgSE3EkpWKNaFI7mvdM-59" edge="1">
          <mxGeometry relative="1" as="geometry" />
        </mxCell>
        <mxCell id="nKgSE3EkpWKNaFI7mvdM-49" value="Начало" style="rounded=1;whiteSpace=wrap;html=1;fillColor=#f5f5f5;fontColor=#333333;strokeColor=#666666;" parent="1" vertex="1">
          <mxGeometry x="115" y="3750" width="120" height="60" as="geometry" />
        </mxCell>
        <mxCell id="nKgSE3EkpWKNaFI7mvdM-50" style="edgeStyle=orthogonalEdgeStyle;rounded=0;orthogonalLoop=1;jettySize=auto;html=1;fillColor=#ffe6cc;strokeColor=#d79b00;entryX=0.5;entryY=0;entryDx=0;entryDy=0;" parent="1" source="nKgSE3EkpWKNaFI7mvdM-51" target="nKgSE3EkpWKNaFI7mvdM-53" edge="1">
          <mxGeometry relative="1" as="geometry" />
        </mxCell>
        <mxCell id="nKgSE3EkpWKNaFI7mvdM-51" value="Получение данных с датчика и формирование пакета данных" style="rounded=0;whiteSpace=wrap;html=1;fillColor=#f5f5f5;fontColor=#333333;strokeColor=#666666;" parent="1" vertex="1">
          <mxGeometry x="115" y="3924" width="120" height="60" as="geometry" />
        </mxCell>
        <mxCell id="nKgSE3EkpWKNaFI7mvdM-72" style="edgeStyle=orthogonalEdgeStyle;rounded=0;orthogonalLoop=1;jettySize=auto;html=1;entryX=0.5;entryY=0;entryDx=0;entryDy=0;fillColor=#fff2cc;strokeColor=#d6b656;" parent="1" source="nKgSE3EkpWKNaFI7mvdM-53" edge="1">
          <mxGeometry relative="1" as="geometry">
            <mxPoint x="174" y="4122" as="targetPoint" />
          </mxGeometry>
        </mxCell>
        <mxCell id="nKgSE3EkpWKNaFI7mvdM-53" value="Отправка пакета данных по протоколу Bluetooth на мобильное устройство&amp;nbsp;" style="rounded=0;whiteSpace=wrap;html=1;fillColor=#f5f5f5;fontColor=#333333;strokeColor=#666666;" parent="1" vertex="1">
          <mxGeometry x="114" y="4006" width="120" height="92" as="geometry" />
        </mxCell>
        <mxCell id="nKgSE3EkpWKNaFI7mvdM-58" style="edgeStyle=orthogonalEdgeStyle;rounded=0;orthogonalLoop=1;jettySize=auto;html=1;entryX=0.5;entryY=0;entryDx=0;entryDy=0;fillColor=#ffe6cc;strokeColor=#d79b00;" parent="1" source="nKgSE3EkpWKNaFI7mvdM-59" target="nKgSE3EkpWKNaFI7mvdM-51" edge="1">
          <mxGeometry relative="1" as="geometry" />
        </mxCell>
        <mxCell id="nKgSE3EkpWKNaFI7mvdM-59" value="Запрос данных мобильным приложением" style="rounded=0;whiteSpace=wrap;html=1;fillColor=#f5f5f5;fontColor=#333333;strokeColor=#666666;" parent="1" vertex="1">
          <mxGeometry x="115" y="3844" width="120" height="60" as="geometry" />
        </mxCell>
        <mxCell id="nKgSE3EkpWKNaFI7mvdM-70" style="edgeStyle=orthogonalEdgeStyle;rounded=0;orthogonalLoop=1;jettySize=auto;html=1;entryX=1;entryY=0.5;entryDx=0;entryDy=0;fillColor=#fff2cc;strokeColor=#d6b656;" parent="1" target="nKgSE3EkpWKNaFI7mvdM-59" edge="1">
          <mxGeometry relative="1" as="geometry">
            <mxPoint x="401.217391304348" y="3837.6956521739135" as="targetPoint" />
            <Array as="points">
              <mxPoint x="174" y="4222" />
              <mxPoint x="323" y="4222" />
              <mxPoint x="323" y="3874" />
            </Array>
            <mxPoint x="174" y="4202" as="sourcePoint" />
          </mxGeometry>
        </mxCell>
        <mxCell id="nKgSE3EkpWKNaFI7mvdM-73" style="edgeStyle=orthogonalEdgeStyle;rounded=0;orthogonalLoop=1;jettySize=auto;html=1;entryX=0.5;entryY=0;entryDx=0;entryDy=0;fillColor=#fff2cc;strokeColor=#d6b656;" parent="1" target="ZVdsV8nFcNDab4a7GRcG-15" edge="1">
          <mxGeometry relative="1" as="geometry">
            <mxPoint x="174" y="4202" as="sourcePoint" />
            <mxPoint x="174" y="4277" as="targetPoint" />
          </mxGeometry>
        </mxCell>
        <mxCell id="nKgSE3EkpWKNaFI7mvdM-64" value="&lt;font color=&quot;#000000&quot;&gt;Да&lt;/font&gt;" style="text;html=1;strokeColor=none;fillColor=none;align=center;verticalAlign=middle;whiteSpace=wrap;rounded=0;" parent="1" vertex="1">
          <mxGeometry x="240" y="4197" width="60" height="30" as="geometry" />
        </mxCell>
        <mxCell id="nKgSE3EkpWKNaFI7mvdM-77" style="edgeStyle=orthogonalEdgeStyle;rounded=0;orthogonalLoop=1;jettySize=auto;html=1;entryX=0.5;entryY=0;entryDx=0;entryDy=0;fillColor=#fff2cc;strokeColor=#d6b656;" parent="1" source="nKgSE3EkpWKNaFI7mvdM-74" target="nKgSE3EkpWKNaFI7mvdM-76" edge="1">
          <mxGeometry relative="1" as="geometry" />
        </mxCell>
        <mxCell id="nKgSE3EkpWKNaFI7mvdM-74" value="Обработка данных" style="rounded=0;whiteSpace=wrap;html=1;fillColor=#f5f5f5;fontColor=#333333;strokeColor=#666666;" parent="1" vertex="1">
          <mxGeometry x="359" y="3832" width="120" height="60" as="geometry" />
        </mxCell>
        <mxCell id="nKgSE3EkpWKNaFI7mvdM-79" style="edgeStyle=orthogonalEdgeStyle;rounded=0;orthogonalLoop=1;jettySize=auto;html=1;entryX=0.5;entryY=0;entryDx=0;entryDy=0;fillColor=#fff2cc;strokeColor=#d6b656;" parent="1" source="nKgSE3EkpWKNaFI7mvdM-76" target="nKgSE3EkpWKNaFI7mvdM-78" edge="1">
          <mxGeometry relative="1" as="geometry" />
        </mxCell>
        <mxCell id="nKgSE3EkpWKNaFI7mvdM-76" value="Запись в базу данных" style="rounded=0;whiteSpace=wrap;html=1;fillColor=#f5f5f5;fontColor=#333333;strokeColor=#666666;" parent="1" vertex="1">
          <mxGeometry x="360" y="3917" width="120" height="60" as="geometry" />
        </mxCell>
        <mxCell id="nKgSE3EkpWKNaFI7mvdM-78" value="Конец" style="rounded=1;whiteSpace=wrap;html=1;fillColor=#f5f5f5;fontColor=#333333;strokeColor=#666666;" parent="1" vertex="1">
          <mxGeometry x="360" y="4002" width="120" height="60" as="geometry" />
        </mxCell>
        <mxCell id="nKgSE3EkpWKNaFI7mvdM-82" value="Нет" style="text;html=1;strokeColor=none;fillColor=none;align=center;verticalAlign=middle;whiteSpace=wrap;rounded=0;" parent="1" vertex="1">
          <mxGeometry x="164" y="4239" width="60" height="30" as="geometry" />
        </mxCell>
        <mxCell id="nKgSE3EkpWKNaFI7mvdM-83" value="Users" style="shape=table;startSize=30;container=1;collapsible=1;childLayout=tableLayout;fixedRows=1;rowLines=0;fontStyle=1;align=center;resizeLast=1;html=1;" parent="1" vertex="1">
          <mxGeometry x="944" y="2544" width="180" height="150" as="geometry" />
        </mxCell>
        <mxCell id="nKgSE3EkpWKNaFI7mvdM-84" value="" style="shape=tableRow;horizontal=0;startSize=0;swimlaneHead=0;swimlaneBody=0;fillColor=none;collapsible=0;dropTarget=0;points=[[0,0.5],[1,0.5]];portConstraint=eastwest;top=0;left=0;right=0;bottom=1;" parent="nKgSE3EkpWKNaFI7mvdM-83" vertex="1">
          <mxGeometry y="30" width="180" height="30" as="geometry" />
        </mxCell>
        <mxCell id="nKgSE3EkpWKNaFI7mvdM-85" value="PK" style="shape=partialRectangle;connectable=0;fillColor=none;top=0;left=0;bottom=0;right=0;fontStyle=1;overflow=hidden;whiteSpace=wrap;html=1;" parent="nKgSE3EkpWKNaFI7mvdM-84" vertex="1">
          <mxGeometry width="30" height="30" as="geometry">
            <mxRectangle width="30" height="30" as="alternateBounds" />
          </mxGeometry>
        </mxCell>
        <mxCell id="nKgSE3EkpWKNaFI7mvdM-86" value="ID" style="shape=partialRectangle;connectable=0;fillColor=none;top=0;left=0;bottom=0;right=0;align=left;spacingLeft=6;fontStyle=5;overflow=hidden;whiteSpace=wrap;html=1;" parent="nKgSE3EkpWKNaFI7mvdM-84" vertex="1">
          <mxGeometry x="30" width="150" height="30" as="geometry">
            <mxRectangle width="150" height="30" as="alternateBounds" />
          </mxGeometry>
        </mxCell>
        <mxCell id="nKgSE3EkpWKNaFI7mvdM-87" value="" style="shape=tableRow;horizontal=0;startSize=0;swimlaneHead=0;swimlaneBody=0;fillColor=none;collapsible=0;dropTarget=0;points=[[0,0.5],[1,0.5]];portConstraint=eastwest;top=0;left=0;right=0;bottom=0;" parent="nKgSE3EkpWKNaFI7mvdM-83" vertex="1">
          <mxGeometry y="60" width="180" height="30" as="geometry" />
        </mxCell>
        <mxCell id="nKgSE3EkpWKNaFI7mvdM-88" value="" style="shape=partialRectangle;connectable=0;fillColor=none;top=0;left=0;bottom=0;right=0;editable=1;overflow=hidden;whiteSpace=wrap;html=1;" parent="nKgSE3EkpWKNaFI7mvdM-87" vertex="1">
          <mxGeometry width="30" height="30" as="geometry">
            <mxRectangle width="30" height="30" as="alternateBounds" />
          </mxGeometry>
        </mxCell>
        <mxCell id="nKgSE3EkpWKNaFI7mvdM-89" value="Name: string" style="shape=partialRectangle;connectable=0;fillColor=none;top=0;left=0;bottom=0;right=0;align=left;spacingLeft=6;overflow=hidden;whiteSpace=wrap;html=1;" parent="nKgSE3EkpWKNaFI7mvdM-87" vertex="1">
          <mxGeometry x="30" width="150" height="30" as="geometry">
            <mxRectangle width="150" height="30" as="alternateBounds" />
          </mxGeometry>
        </mxCell>
        <mxCell id="nKgSE3EkpWKNaFI7mvdM-90" value="" style="shape=tableRow;horizontal=0;startSize=0;swimlaneHead=0;swimlaneBody=0;fillColor=none;collapsible=0;dropTarget=0;points=[[0,0.5],[1,0.5]];portConstraint=eastwest;top=0;left=0;right=0;bottom=0;" parent="nKgSE3EkpWKNaFI7mvdM-83" vertex="1">
          <mxGeometry y="90" width="180" height="30" as="geometry" />
        </mxCell>
        <mxCell id="nKgSE3EkpWKNaFI7mvdM-91" value="" style="shape=partialRectangle;connectable=0;fillColor=none;top=0;left=0;bottom=0;right=0;editable=1;overflow=hidden;whiteSpace=wrap;html=1;" parent="nKgSE3EkpWKNaFI7mvdM-90" vertex="1">
          <mxGeometry width="30" height="30" as="geometry">
            <mxRectangle width="30" height="30" as="alternateBounds" />
          </mxGeometry>
        </mxCell>
        <mxCell id="nKgSE3EkpWKNaFI7mvdM-92" value="Email: string" style="shape=partialRectangle;connectable=0;fillColor=none;top=0;left=0;bottom=0;right=0;align=left;spacingLeft=6;overflow=hidden;whiteSpace=wrap;html=1;" parent="nKgSE3EkpWKNaFI7mvdM-90" vertex="1">
          <mxGeometry x="30" width="150" height="30" as="geometry">
            <mxRectangle width="150" height="30" as="alternateBounds" />
          </mxGeometry>
        </mxCell>
        <mxCell id="nKgSE3EkpWKNaFI7mvdM-93" value="" style="shape=tableRow;horizontal=0;startSize=0;swimlaneHead=0;swimlaneBody=0;fillColor=none;collapsible=0;dropTarget=0;points=[[0,0.5],[1,0.5]];portConstraint=eastwest;top=0;left=0;right=0;bottom=0;" parent="nKgSE3EkpWKNaFI7mvdM-83" vertex="1">
          <mxGeometry y="120" width="180" height="30" as="geometry" />
        </mxCell>
        <mxCell id="nKgSE3EkpWKNaFI7mvdM-94" value="" style="shape=partialRectangle;connectable=0;fillColor=none;top=0;left=0;bottom=0;right=0;editable=1;overflow=hidden;whiteSpace=wrap;html=1;" parent="nKgSE3EkpWKNaFI7mvdM-93" vertex="1">
          <mxGeometry width="30" height="30" as="geometry">
            <mxRectangle width="30" height="30" as="alternateBounds" />
          </mxGeometry>
        </mxCell>
        <mxCell id="nKgSE3EkpWKNaFI7mvdM-95" value="PasswordHash: string" style="shape=partialRectangle;connectable=0;fillColor=none;top=0;left=0;bottom=0;right=0;align=left;spacingLeft=6;overflow=hidden;whiteSpace=wrap;html=1;" parent="nKgSE3EkpWKNaFI7mvdM-93" vertex="1">
          <mxGeometry x="30" width="150" height="30" as="geometry">
            <mxRectangle width="150" height="30" as="alternateBounds" />
          </mxGeometry>
        </mxCell>
        <mxCell id="nKgSE3EkpWKNaFI7mvdM-96" value="Casts" style="shape=table;startSize=30;container=1;collapsible=1;childLayout=tableLayout;fixedRows=1;rowLines=0;fontStyle=1;align=center;resizeLast=1;html=1;" parent="1" vertex="1">
          <mxGeometry x="1201" y="2544" width="171.68421052631606" height="150" as="geometry" />
        </mxCell>
        <mxCell id="nKgSE3EkpWKNaFI7mvdM-97" value="" style="shape=tableRow;horizontal=0;startSize=0;swimlaneHead=0;swimlaneBody=0;fillColor=none;collapsible=0;dropTarget=0;points=[[0,0.5],[1,0.5]];portConstraint=eastwest;top=0;left=0;right=0;bottom=1;" parent="nKgSE3EkpWKNaFI7mvdM-96" vertex="1">
          <mxGeometry y="30" width="171.68421052631606" height="30" as="geometry" />
        </mxCell>
        <mxCell id="nKgSE3EkpWKNaFI7mvdM-98" value="PK" style="shape=partialRectangle;connectable=0;fillColor=none;top=0;left=0;bottom=0;right=0;fontStyle=1;overflow=hidden;whiteSpace=wrap;html=1;" parent="nKgSE3EkpWKNaFI7mvdM-97" vertex="1">
          <mxGeometry width="30" height="30" as="geometry">
            <mxRectangle width="30" height="30" as="alternateBounds" />
          </mxGeometry>
        </mxCell>
        <mxCell id="nKgSE3EkpWKNaFI7mvdM-99" value="ID" style="shape=partialRectangle;connectable=0;fillColor=none;top=0;left=0;bottom=0;right=0;align=left;spacingLeft=6;fontStyle=5;overflow=hidden;whiteSpace=wrap;html=1;" parent="nKgSE3EkpWKNaFI7mvdM-97" vertex="1">
          <mxGeometry x="30" width="141.68421052631606" height="30" as="geometry">
            <mxRectangle width="141.68421052631606" height="30" as="alternateBounds" />
          </mxGeometry>
        </mxCell>
        <mxCell id="nKgSE3EkpWKNaFI7mvdM-100" value="" style="shape=tableRow;horizontal=0;startSize=0;swimlaneHead=0;swimlaneBody=0;fillColor=none;collapsible=0;dropTarget=0;points=[[0,0.5],[1,0.5]];portConstraint=eastwest;top=0;left=0;right=0;bottom=0;" parent="nKgSE3EkpWKNaFI7mvdM-96" vertex="1">
          <mxGeometry y="60" width="171.68421052631606" height="30" as="geometry" />
        </mxCell>
        <mxCell id="nKgSE3EkpWKNaFI7mvdM-101" value="FK" style="shape=partialRectangle;connectable=0;fillColor=none;top=0;left=0;bottom=0;right=0;editable=1;overflow=hidden;whiteSpace=wrap;html=1;" parent="nKgSE3EkpWKNaFI7mvdM-100" vertex="1">
          <mxGeometry width="30" height="30" as="geometry">
            <mxRectangle width="30" height="30" as="alternateBounds" />
          </mxGeometry>
        </mxCell>
        <mxCell id="nKgSE3EkpWKNaFI7mvdM-102" value="UserId" style="shape=partialRectangle;connectable=0;fillColor=none;top=0;left=0;bottom=0;right=0;align=left;spacingLeft=6;overflow=hidden;whiteSpace=wrap;html=1;" parent="nKgSE3EkpWKNaFI7mvdM-100" vertex="1">
          <mxGeometry x="30" width="141.68421052631606" height="30" as="geometry">
            <mxRectangle width="141.68421052631606" height="30" as="alternateBounds" />
          </mxGeometry>
        </mxCell>
        <mxCell id="nKgSE3EkpWKNaFI7mvdM-103" value="" style="shape=tableRow;horizontal=0;startSize=0;swimlaneHead=0;swimlaneBody=0;fillColor=none;collapsible=0;dropTarget=0;points=[[0,0.5],[1,0.5]];portConstraint=eastwest;top=0;left=0;right=0;bottom=0;" parent="nKgSE3EkpWKNaFI7mvdM-96" vertex="1">
          <mxGeometry y="90" width="171.68421052631606" height="30" as="geometry" />
        </mxCell>
        <mxCell id="nKgSE3EkpWKNaFI7mvdM-104" value="" style="shape=partialRectangle;connectable=0;fillColor=none;top=0;left=0;bottom=0;right=0;editable=1;overflow=hidden;whiteSpace=wrap;html=1;" parent="nKgSE3EkpWKNaFI7mvdM-103" vertex="1">
          <mxGeometry width="30" height="30" as="geometry">
            <mxRectangle width="30" height="30" as="alternateBounds" />
          </mxGeometry>
        </mxCell>
        <mxCell id="nKgSE3EkpWKNaFI7mvdM-105" value="ExerciseName: string" style="shape=partialRectangle;connectable=0;fillColor=none;top=0;left=0;bottom=0;right=0;align=left;spacingLeft=6;overflow=hidden;whiteSpace=wrap;html=1;" parent="nKgSE3EkpWKNaFI7mvdM-103" vertex="1">
          <mxGeometry x="30" width="141.68421052631606" height="30" as="geometry">
            <mxRectangle width="141.68421052631606" height="30" as="alternateBounds" />
          </mxGeometry>
        </mxCell>
        <mxCell id="nKgSE3EkpWKNaFI7mvdM-106" value="" style="shape=tableRow;horizontal=0;startSize=0;swimlaneHead=0;swimlaneBody=0;fillColor=none;collapsible=0;dropTarget=0;points=[[0,0.5],[1,0.5]];portConstraint=eastwest;top=0;left=0;right=0;bottom=0;" parent="nKgSE3EkpWKNaFI7mvdM-96" vertex="1">
          <mxGeometry y="120" width="171.68421052631606" height="30" as="geometry" />
        </mxCell>
        <mxCell id="nKgSE3EkpWKNaFI7mvdM-107" value="" style="shape=partialRectangle;connectable=0;fillColor=none;top=0;left=0;bottom=0;right=0;editable=1;overflow=hidden;whiteSpace=wrap;html=1;" parent="nKgSE3EkpWKNaFI7mvdM-106" vertex="1">
          <mxGeometry width="30" height="30" as="geometry">
            <mxRectangle width="30" height="30" as="alternateBounds" />
          </mxGeometry>
        </mxCell>
        <mxCell id="nKgSE3EkpWKNaFI7mvdM-108" value="Data" style="shape=partialRectangle;connectable=0;fillColor=none;top=0;left=0;bottom=0;right=0;align=left;spacingLeft=6;overflow=hidden;whiteSpace=wrap;html=1;" parent="nKgSE3EkpWKNaFI7mvdM-106" vertex="1">
          <mxGeometry x="30" width="141.68421052631606" height="30" as="geometry">
            <mxRectangle width="141.68421052631606" height="30" as="alternateBounds" />
          </mxGeometry>
        </mxCell>
        <mxCell id="nKgSE3EkpWKNaFI7mvdM-109" style="edgeStyle=orthogonalEdgeStyle;rounded=0;orthogonalLoop=1;jettySize=auto;html=1;entryX=1;entryY=0.5;entryDx=0;entryDy=0;" parent="1" source="nKgSE3EkpWKNaFI7mvdM-100" target="nKgSE3EkpWKNaFI7mvdM-84" edge="1">
          <mxGeometry relative="1" as="geometry" />
        </mxCell>
        <mxCell id="nKgSE3EkpWKNaFI7mvdM-110" value="Workouts" style="shape=table;startSize=30;container=1;collapsible=1;childLayout=tableLayout;fixedRows=1;rowLines=0;fontStyle=1;align=center;resizeLast=1;html=1;" parent="1" vertex="1">
          <mxGeometry x="1015" y="2775" width="180" height="120" as="geometry" />
        </mxCell>
        <mxCell id="nKgSE3EkpWKNaFI7mvdM-111" value="" style="shape=tableRow;horizontal=0;startSize=0;swimlaneHead=0;swimlaneBody=0;fillColor=none;collapsible=0;dropTarget=0;points=[[0,0.5],[1,0.5]];portConstraint=eastwest;top=0;left=0;right=0;bottom=1;" parent="nKgSE3EkpWKNaFI7mvdM-110" vertex="1">
          <mxGeometry y="30" width="180" height="30" as="geometry" />
        </mxCell>
        <mxCell id="nKgSE3EkpWKNaFI7mvdM-112" value="PK" style="shape=partialRectangle;connectable=0;fillColor=none;top=0;left=0;bottom=0;right=0;fontStyle=1;overflow=hidden;whiteSpace=wrap;html=1;" parent="nKgSE3EkpWKNaFI7mvdM-111" vertex="1">
          <mxGeometry width="30" height="30" as="geometry">
            <mxRectangle width="30" height="30" as="alternateBounds" />
          </mxGeometry>
        </mxCell>
        <mxCell id="nKgSE3EkpWKNaFI7mvdM-113" value="ID" style="shape=partialRectangle;connectable=0;fillColor=none;top=0;left=0;bottom=0;right=0;align=left;spacingLeft=6;fontStyle=5;overflow=hidden;whiteSpace=wrap;html=1;" parent="nKgSE3EkpWKNaFI7mvdM-111" vertex="1">
          <mxGeometry x="30" width="150" height="30" as="geometry">
            <mxRectangle width="150" height="30" as="alternateBounds" />
          </mxGeometry>
        </mxCell>
        <mxCell id="nKgSE3EkpWKNaFI7mvdM-114" value="" style="shape=tableRow;horizontal=0;startSize=0;swimlaneHead=0;swimlaneBody=0;fillColor=none;collapsible=0;dropTarget=0;points=[[0,0.5],[1,0.5]];portConstraint=eastwest;top=0;left=0;right=0;bottom=0;" parent="nKgSE3EkpWKNaFI7mvdM-110" vertex="1">
          <mxGeometry y="60" width="180" height="30" as="geometry" />
        </mxCell>
        <mxCell id="nKgSE3EkpWKNaFI7mvdM-115" value="FK" style="shape=partialRectangle;connectable=0;fillColor=none;top=0;left=0;bottom=0;right=0;editable=1;overflow=hidden;whiteSpace=wrap;html=1;" parent="nKgSE3EkpWKNaFI7mvdM-114" vertex="1">
          <mxGeometry width="30" height="30" as="geometry">
            <mxRectangle width="30" height="30" as="alternateBounds" />
          </mxGeometry>
        </mxCell>
        <mxCell id="nKgSE3EkpWKNaFI7mvdM-116" value="UserId" style="shape=partialRectangle;connectable=0;fillColor=none;top=0;left=0;bottom=0;right=0;align=left;spacingLeft=6;overflow=hidden;whiteSpace=wrap;html=1;" parent="nKgSE3EkpWKNaFI7mvdM-114" vertex="1">
          <mxGeometry x="30" width="150" height="30" as="geometry">
            <mxRectangle width="150" height="30" as="alternateBounds" />
          </mxGeometry>
        </mxCell>
        <mxCell id="nKgSE3EkpWKNaFI7mvdM-117" value="" style="shape=tableRow;horizontal=0;startSize=0;swimlaneHead=0;swimlaneBody=0;fillColor=none;collapsible=0;dropTarget=0;points=[[0,0.5],[1,0.5]];portConstraint=eastwest;top=0;left=0;right=0;bottom=0;" parent="nKgSE3EkpWKNaFI7mvdM-110" vertex="1">
          <mxGeometry y="90" width="180" height="30" as="geometry" />
        </mxCell>
        <mxCell id="nKgSE3EkpWKNaFI7mvdM-118" value="" style="shape=partialRectangle;connectable=0;fillColor=none;top=0;left=0;bottom=0;right=0;editable=1;overflow=hidden;whiteSpace=wrap;html=1;" parent="nKgSE3EkpWKNaFI7mvdM-117" vertex="1">
          <mxGeometry width="30" height="30" as="geometry">
            <mxRectangle width="30" height="30" as="alternateBounds" />
          </mxGeometry>
        </mxCell>
        <mxCell id="nKgSE3EkpWKNaFI7mvdM-119" value="Time: DateTime" style="shape=partialRectangle;connectable=0;fillColor=none;top=0;left=0;bottom=0;right=0;align=left;spacingLeft=6;overflow=hidden;whiteSpace=wrap;html=1;" parent="nKgSE3EkpWKNaFI7mvdM-117" vertex="1">
          <mxGeometry x="30" width="150" height="30" as="geometry">
            <mxRectangle width="150" height="30" as="alternateBounds" />
          </mxGeometry>
        </mxCell>
        <mxCell id="nKgSE3EkpWKNaFI7mvdM-123" style="edgeStyle=orthogonalEdgeStyle;rounded=0;orthogonalLoop=1;jettySize=auto;html=1;entryX=0;entryY=0.5;entryDx=0;entryDy=0;" parent="1" source="nKgSE3EkpWKNaFI7mvdM-114" target="nKgSE3EkpWKNaFI7mvdM-84" edge="1">
          <mxGeometry relative="1" as="geometry" />
        </mxCell>
        <mxCell id="nKgSE3EkpWKNaFI7mvdM-124" value="Posts" style="shape=table;startSize=30;container=1;collapsible=1;childLayout=tableLayout;fixedRows=1;rowLines=0;fontStyle=1;align=center;resizeLast=1;html=1;" parent="1" vertex="1">
          <mxGeometry x="1301" y="2794" width="180" height="150" as="geometry" />
        </mxCell>
        <mxCell id="nKgSE3EkpWKNaFI7mvdM-125" value="" style="shape=tableRow;horizontal=0;startSize=0;swimlaneHead=0;swimlaneBody=0;fillColor=none;collapsible=0;dropTarget=0;points=[[0,0.5],[1,0.5]];portConstraint=eastwest;top=0;left=0;right=0;bottom=1;" parent="nKgSE3EkpWKNaFI7mvdM-124" vertex="1">
          <mxGeometry y="30" width="180" height="30" as="geometry" />
        </mxCell>
        <mxCell id="nKgSE3EkpWKNaFI7mvdM-126" value="PK" style="shape=partialRectangle;connectable=0;fillColor=none;top=0;left=0;bottom=0;right=0;fontStyle=1;overflow=hidden;whiteSpace=wrap;html=1;" parent="nKgSE3EkpWKNaFI7mvdM-125" vertex="1">
          <mxGeometry width="30" height="30" as="geometry">
            <mxRectangle width="30" height="30" as="alternateBounds" />
          </mxGeometry>
        </mxCell>
        <mxCell id="nKgSE3EkpWKNaFI7mvdM-127" value="ID" style="shape=partialRectangle;connectable=0;fillColor=none;top=0;left=0;bottom=0;right=0;align=left;spacingLeft=6;fontStyle=5;overflow=hidden;whiteSpace=wrap;html=1;" parent="nKgSE3EkpWKNaFI7mvdM-125" vertex="1">
          <mxGeometry x="30" width="150" height="30" as="geometry">
            <mxRectangle width="150" height="30" as="alternateBounds" />
          </mxGeometry>
        </mxCell>
        <mxCell id="nKgSE3EkpWKNaFI7mvdM-128" value="" style="shape=tableRow;horizontal=0;startSize=0;swimlaneHead=0;swimlaneBody=0;fillColor=none;collapsible=0;dropTarget=0;points=[[0,0.5],[1,0.5]];portConstraint=eastwest;top=0;left=0;right=0;bottom=0;" parent="nKgSE3EkpWKNaFI7mvdM-124" vertex="1">
          <mxGeometry y="60" width="180" height="30" as="geometry" />
        </mxCell>
        <mxCell id="nKgSE3EkpWKNaFI7mvdM-129" value="FK" style="shape=partialRectangle;connectable=0;fillColor=none;top=0;left=0;bottom=0;right=0;editable=1;overflow=hidden;whiteSpace=wrap;html=1;" parent="nKgSE3EkpWKNaFI7mvdM-128" vertex="1">
          <mxGeometry width="30" height="30" as="geometry">
            <mxRectangle width="30" height="30" as="alternateBounds" />
          </mxGeometry>
        </mxCell>
        <mxCell id="nKgSE3EkpWKNaFI7mvdM-130" value="WorkoutId" style="shape=partialRectangle;connectable=0;fillColor=none;top=0;left=0;bottom=0;right=0;align=left;spacingLeft=6;overflow=hidden;whiteSpace=wrap;html=1;" parent="nKgSE3EkpWKNaFI7mvdM-128" vertex="1">
          <mxGeometry x="30" width="150" height="30" as="geometry">
            <mxRectangle width="150" height="30" as="alternateBounds" />
          </mxGeometry>
        </mxCell>
        <mxCell id="nKgSE3EkpWKNaFI7mvdM-131" value="" style="shape=tableRow;horizontal=0;startSize=0;swimlaneHead=0;swimlaneBody=0;fillColor=none;collapsible=0;dropTarget=0;points=[[0,0.5],[1,0.5]];portConstraint=eastwest;top=0;left=0;right=0;bottom=0;" parent="nKgSE3EkpWKNaFI7mvdM-124" vertex="1">
          <mxGeometry y="90" width="180" height="30" as="geometry" />
        </mxCell>
        <mxCell id="nKgSE3EkpWKNaFI7mvdM-132" value="" style="shape=partialRectangle;connectable=0;fillColor=none;top=0;left=0;bottom=0;right=0;editable=1;overflow=hidden;whiteSpace=wrap;html=1;" parent="nKgSE3EkpWKNaFI7mvdM-131" vertex="1">
          <mxGeometry width="30" height="30" as="geometry">
            <mxRectangle width="30" height="30" as="alternateBounds" />
          </mxGeometry>
        </mxCell>
        <mxCell id="nKgSE3EkpWKNaFI7mvdM-133" value="Name: string" style="shape=partialRectangle;connectable=0;fillColor=none;top=0;left=0;bottom=0;right=0;align=left;spacingLeft=6;overflow=hidden;whiteSpace=wrap;html=1;" parent="nKgSE3EkpWKNaFI7mvdM-131" vertex="1">
          <mxGeometry x="30" width="150" height="30" as="geometry">
            <mxRectangle width="150" height="30" as="alternateBounds" />
          </mxGeometry>
        </mxCell>
        <mxCell id="nKgSE3EkpWKNaFI7mvdM-134" value="" style="shape=tableRow;horizontal=0;startSize=0;swimlaneHead=0;swimlaneBody=0;fillColor=none;collapsible=0;dropTarget=0;points=[[0,0.5],[1,0.5]];portConstraint=eastwest;top=0;left=0;right=0;bottom=0;" parent="nKgSE3EkpWKNaFI7mvdM-124" vertex="1">
          <mxGeometry y="120" width="180" height="30" as="geometry" />
        </mxCell>
        <mxCell id="nKgSE3EkpWKNaFI7mvdM-135" value="" style="shape=partialRectangle;connectable=0;fillColor=none;top=0;left=0;bottom=0;right=0;editable=1;overflow=hidden;whiteSpace=wrap;html=1;" parent="nKgSE3EkpWKNaFI7mvdM-134" vertex="1">
          <mxGeometry width="30" height="30" as="geometry">
            <mxRectangle width="30" height="30" as="alternateBounds" />
          </mxGeometry>
        </mxCell>
        <mxCell id="nKgSE3EkpWKNaFI7mvdM-136" value="Content: string" style="shape=partialRectangle;connectable=0;fillColor=none;top=0;left=0;bottom=0;right=0;align=left;spacingLeft=6;overflow=hidden;whiteSpace=wrap;html=1;" parent="nKgSE3EkpWKNaFI7mvdM-134" vertex="1">
          <mxGeometry x="30" width="150" height="30" as="geometry">
            <mxRectangle width="150" height="30" as="alternateBounds" />
          </mxGeometry>
        </mxCell>
        <mxCell id="nKgSE3EkpWKNaFI7mvdM-137" style="edgeStyle=orthogonalEdgeStyle;rounded=0;orthogonalLoop=1;jettySize=auto;html=1;entryX=1;entryY=0.5;entryDx=0;entryDy=0;" parent="1" source="nKgSE3EkpWKNaFI7mvdM-128" target="nKgSE3EkpWKNaFI7mvdM-111" edge="1">
          <mxGeometry relative="1" as="geometry" />
        </mxCell>
        <mxCell id="nKgSE3EkpWKNaFI7mvdM-138" value="Exercises" style="shape=table;startSize=30;container=1;collapsible=1;childLayout=tableLayout;fixedRows=1;rowLines=0;fontStyle=1;align=center;resizeLast=1;html=1;" parent="1" vertex="1">
          <mxGeometry x="999" y="2974" width="180" height="150" as="geometry" />
        </mxCell>
        <mxCell id="nKgSE3EkpWKNaFI7mvdM-139" value="" style="shape=tableRow;horizontal=0;startSize=0;swimlaneHead=0;swimlaneBody=0;fillColor=none;collapsible=0;dropTarget=0;points=[[0,0.5],[1,0.5]];portConstraint=eastwest;top=0;left=0;right=0;bottom=1;" parent="nKgSE3EkpWKNaFI7mvdM-138" vertex="1">
          <mxGeometry y="30" width="180" height="30" as="geometry" />
        </mxCell>
        <mxCell id="nKgSE3EkpWKNaFI7mvdM-140" value="PK" style="shape=partialRectangle;connectable=0;fillColor=none;top=0;left=0;bottom=0;right=0;fontStyle=1;overflow=hidden;whiteSpace=wrap;html=1;" parent="nKgSE3EkpWKNaFI7mvdM-139" vertex="1">
          <mxGeometry width="30" height="30" as="geometry">
            <mxRectangle width="30" height="30" as="alternateBounds" />
          </mxGeometry>
        </mxCell>
        <mxCell id="nKgSE3EkpWKNaFI7mvdM-141" value="ID" style="shape=partialRectangle;connectable=0;fillColor=none;top=0;left=0;bottom=0;right=0;align=left;spacingLeft=6;fontStyle=5;overflow=hidden;whiteSpace=wrap;html=1;" parent="nKgSE3EkpWKNaFI7mvdM-139" vertex="1">
          <mxGeometry x="30" width="150" height="30" as="geometry">
            <mxRectangle width="150" height="30" as="alternateBounds" />
          </mxGeometry>
        </mxCell>
        <mxCell id="nKgSE3EkpWKNaFI7mvdM-142" value="" style="shape=tableRow;horizontal=0;startSize=0;swimlaneHead=0;swimlaneBody=0;fillColor=none;collapsible=0;dropTarget=0;points=[[0,0.5],[1,0.5]];portConstraint=eastwest;top=0;left=0;right=0;bottom=0;" parent="nKgSE3EkpWKNaFI7mvdM-138" vertex="1">
          <mxGeometry y="60" width="180" height="30" as="geometry" />
        </mxCell>
        <mxCell id="nKgSE3EkpWKNaFI7mvdM-143" value="FK" style="shape=partialRectangle;connectable=0;fillColor=none;top=0;left=0;bottom=0;right=0;editable=1;overflow=hidden;whiteSpace=wrap;html=1;" parent="nKgSE3EkpWKNaFI7mvdM-142" vertex="1">
          <mxGeometry width="30" height="30" as="geometry">
            <mxRectangle width="30" height="30" as="alternateBounds" />
          </mxGeometry>
        </mxCell>
        <mxCell id="nKgSE3EkpWKNaFI7mvdM-144" value="WorkoutId" style="shape=partialRectangle;connectable=0;fillColor=none;top=0;left=0;bottom=0;right=0;align=left;spacingLeft=6;overflow=hidden;whiteSpace=wrap;html=1;" parent="nKgSE3EkpWKNaFI7mvdM-142" vertex="1">
          <mxGeometry x="30" width="150" height="30" as="geometry">
            <mxRectangle width="150" height="30" as="alternateBounds" />
          </mxGeometry>
        </mxCell>
        <mxCell id="nKgSE3EkpWKNaFI7mvdM-145" value="" style="shape=tableRow;horizontal=0;startSize=0;swimlaneHead=0;swimlaneBody=0;fillColor=none;collapsible=0;dropTarget=0;points=[[0,0.5],[1,0.5]];portConstraint=eastwest;top=0;left=0;right=0;bottom=0;" parent="nKgSE3EkpWKNaFI7mvdM-138" vertex="1">
          <mxGeometry y="90" width="180" height="30" as="geometry" />
        </mxCell>
        <mxCell id="nKgSE3EkpWKNaFI7mvdM-146" value="" style="shape=partialRectangle;connectable=0;fillColor=none;top=0;left=0;bottom=0;right=0;editable=1;overflow=hidden;whiteSpace=wrap;html=1;" parent="nKgSE3EkpWKNaFI7mvdM-145" vertex="1">
          <mxGeometry width="30" height="30" as="geometry">
            <mxRectangle width="30" height="30" as="alternateBounds" />
          </mxGeometry>
        </mxCell>
        <mxCell id="nKgSE3EkpWKNaFI7mvdM-147" value="Name: string" style="shape=partialRectangle;connectable=0;fillColor=none;top=0;left=0;bottom=0;right=0;align=left;spacingLeft=6;overflow=hidden;whiteSpace=wrap;html=1;" parent="nKgSE3EkpWKNaFI7mvdM-145" vertex="1">
          <mxGeometry x="30" width="150" height="30" as="geometry">
            <mxRectangle width="150" height="30" as="alternateBounds" />
          </mxGeometry>
        </mxCell>
        <mxCell id="nKgSE3EkpWKNaFI7mvdM-148" value="" style="shape=tableRow;horizontal=0;startSize=0;swimlaneHead=0;swimlaneBody=0;fillColor=none;collapsible=0;dropTarget=0;points=[[0,0.5],[1,0.5]];portConstraint=eastwest;top=0;left=0;right=0;bottom=0;" parent="nKgSE3EkpWKNaFI7mvdM-138" vertex="1">
          <mxGeometry y="120" width="180" height="30" as="geometry" />
        </mxCell>
        <mxCell id="nKgSE3EkpWKNaFI7mvdM-149" value="" style="shape=partialRectangle;connectable=0;fillColor=none;top=0;left=0;bottom=0;right=0;editable=1;overflow=hidden;whiteSpace=wrap;html=1;" parent="nKgSE3EkpWKNaFI7mvdM-148" vertex="1">
          <mxGeometry width="30" height="30" as="geometry">
            <mxRectangle width="30" height="30" as="alternateBounds" />
          </mxGeometry>
        </mxCell>
        <mxCell id="nKgSE3EkpWKNaFI7mvdM-150" value="Reps: int" style="shape=partialRectangle;connectable=0;fillColor=none;top=0;left=0;bottom=0;right=0;align=left;spacingLeft=6;overflow=hidden;whiteSpace=wrap;html=1;" parent="nKgSE3EkpWKNaFI7mvdM-148" vertex="1">
          <mxGeometry x="30" width="150" height="30" as="geometry">
            <mxRectangle width="150" height="30" as="alternateBounds" />
          </mxGeometry>
        </mxCell>
        <mxCell id="nKgSE3EkpWKNaFI7mvdM-152" style="edgeStyle=orthogonalEdgeStyle;rounded=0;orthogonalLoop=1;jettySize=auto;html=1;entryX=1;entryY=0.5;entryDx=0;entryDy=0;" parent="1" source="nKgSE3EkpWKNaFI7mvdM-142" target="nKgSE3EkpWKNaFI7mvdM-111" edge="1">
          <mxGeometry relative="1" as="geometry" />
        </mxCell>
        <mxCell id="MVEOqqsNRCNZb2ut2GVW-7" style="edgeStyle=orthogonalEdgeStyle;rounded=0;orthogonalLoop=1;jettySize=auto;html=1;entryX=0;entryY=0.5;entryDx=0;entryDy=0;" parent="1" source="MVEOqqsNRCNZb2ut2GVW-1" target="MVEOqqsNRCNZb2ut2GVW-2" edge="1">
          <mxGeometry relative="1" as="geometry" />
        </mxCell>
        <mxCell id="MVEOqqsNRCNZb2ut2GVW-1" value="Ускорения" style="rounded=0;whiteSpace=wrap;html=1;" parent="1" vertex="1">
          <mxGeometry x="237" y="3410" width="120" height="60" as="geometry" />
        </mxCell>
        <mxCell id="MVEOqqsNRCNZb2ut2GVW-8" style="edgeStyle=orthogonalEdgeStyle;rounded=0;orthogonalLoop=1;jettySize=auto;html=1;exitX=1;exitY=0.5;exitDx=0;exitDy=0;entryX=0;entryY=0.5;entryDx=0;entryDy=0;" parent="1" source="MVEOqqsNRCNZb2ut2GVW-2" target="MVEOqqsNRCNZb2ut2GVW-3" edge="1">
          <mxGeometry relative="1" as="geometry" />
        </mxCell>
        <mxCell id="MVEOqqsNRCNZb2ut2GVW-2" value="Фильтрация" style="rounded=0;whiteSpace=wrap;html=1;" parent="1" vertex="1">
          <mxGeometry x="376" y="3410" width="120" height="60" as="geometry" />
        </mxCell>
        <mxCell id="MVEOqqsNRCNZb2ut2GVW-9" style="edgeStyle=orthogonalEdgeStyle;rounded=0;orthogonalLoop=1;jettySize=auto;html=1;exitX=1;exitY=0.5;exitDx=0;exitDy=0;entryX=0;entryY=0.5;entryDx=0;entryDy=0;" parent="1" source="MVEOqqsNRCNZb2ut2GVW-3" target="MVEOqqsNRCNZb2ut2GVW-4" edge="1">
          <mxGeometry relative="1" as="geometry" />
        </mxCell>
        <mxCell id="MVEOqqsNRCNZb2ut2GVW-3" value="Интегрирование" style="rounded=0;whiteSpace=wrap;html=1;" parent="1" vertex="1">
          <mxGeometry x="511" y="3410" width="120" height="60" as="geometry" />
        </mxCell>
        <mxCell id="MVEOqqsNRCNZb2ut2GVW-10" style="edgeStyle=orthogonalEdgeStyle;rounded=0;orthogonalLoop=1;jettySize=auto;html=1;exitX=1;exitY=0.5;exitDx=0;exitDy=0;entryX=0;entryY=0.5;entryDx=0;entryDy=0;" parent="1" source="MVEOqqsNRCNZb2ut2GVW-4" target="MVEOqqsNRCNZb2ut2GVW-5" edge="1">
          <mxGeometry relative="1" as="geometry" />
        </mxCell>
        <mxCell id="MVEOqqsNRCNZb2ut2GVW-4" value="Фильтрация" style="rounded=0;whiteSpace=wrap;html=1;" parent="1" vertex="1">
          <mxGeometry x="652" y="3410" width="120" height="60" as="geometry" />
        </mxCell>
        <mxCell id="MVEOqqsNRCNZb2ut2GVW-11" style="edgeStyle=orthogonalEdgeStyle;rounded=0;orthogonalLoop=1;jettySize=auto;html=1;exitX=1;exitY=0.5;exitDx=0;exitDy=0;entryX=0;entryY=0.5;entryDx=0;entryDy=0;" parent="1" source="MVEOqqsNRCNZb2ut2GVW-5" target="MVEOqqsNRCNZb2ut2GVW-6" edge="1">
          <mxGeometry relative="1" as="geometry" />
        </mxCell>
        <mxCell id="MVEOqqsNRCNZb2ut2GVW-5" value="Интегрирование" style="rounded=0;whiteSpace=wrap;html=1;" parent="1" vertex="1">
          <mxGeometry x="788" y="3410" width="120" height="60" as="geometry" />
        </mxCell>
        <mxCell id="MVEOqqsNRCNZb2ut2GVW-18" style="edgeStyle=orthogonalEdgeStyle;rounded=0;orthogonalLoop=1;jettySize=auto;html=1;entryX=0;entryY=0.5;entryDx=0;entryDy=0;" parent="1" source="MVEOqqsNRCNZb2ut2GVW-6" target="MVEOqqsNRCNZb2ut2GVW-17" edge="1">
          <mxGeometry relative="1" as="geometry" />
        </mxCell>
        <mxCell id="MVEOqqsNRCNZb2ut2GVW-6" value="Интерполяция" style="rounded=0;whiteSpace=wrap;html=1;" parent="1" vertex="1">
          <mxGeometry x="926" y="3410" width="120" height="60" as="geometry" />
        </mxCell>
        <mxCell id="MVEOqqsNRCNZb2ut2GVW-12" value="Отсутствует&lt;br&gt;Фильтр Калмана&lt;br&gt;Расширенный фильтр Калмана" style="rounded=1;whiteSpace=wrap;html=1;" parent="1" vertex="1">
          <mxGeometry x="376" y="3481" width="120" height="85" as="geometry" />
        </mxCell>
        <mxCell id="MVEOqqsNRCNZb2ut2GVW-13" value="Отсутствует&lt;br&gt;Фильтр Калмана&lt;br&gt;Расширенный фильтр Калмана" style="rounded=1;whiteSpace=wrap;html=1;" parent="1" vertex="1">
          <mxGeometry x="652" y="3480" width="120" height="85" as="geometry" />
        </mxCell>
        <mxCell id="MVEOqqsNRCNZb2ut2GVW-14" value="Метод прямоугольников&lt;br&gt;Метод трапеций&lt;br&gt;Метод парабол" style="rounded=1;whiteSpace=wrap;html=1;" parent="1" vertex="1">
          <mxGeometry x="511" y="3480" width="120" height="86" as="geometry" />
        </mxCell>
        <mxCell id="MVEOqqsNRCNZb2ut2GVW-15" value="Метод прямоугольников&lt;br&gt;Метод трапеций&lt;br&gt;Метод парабол" style="rounded=1;whiteSpace=wrap;html=1;" parent="1" vertex="1">
          <mxGeometry x="788" y="3480" width="120" height="83" as="geometry" />
        </mxCell>
        <mxCell id="MVEOqqsNRCNZb2ut2GVW-16" value="Линейная&lt;br&gt;Кубическими сплайнами&lt;br&gt;Полиномом Лагранжа" style="rounded=1;whiteSpace=wrap;html=1;" parent="1" vertex="1">
          <mxGeometry x="926" y="3480" width="120" height="81" as="geometry" />
        </mxCell>
        <mxCell id="MVEOqqsNRCNZb2ut2GVW-17" value="Траектория" style="rounded=0;whiteSpace=wrap;html=1;" parent="1" vertex="1">
          <mxGeometry x="1063" y="3410" width="120" height="60" as="geometry" />
        </mxCell>
        <mxCell id="MVEOqqsNRCNZb2ut2GVW-21" style="edgeStyle=orthogonalEdgeStyle;rounded=0;orthogonalLoop=1;jettySize=auto;html=1;exitX=0.5;exitY=1;exitDx=0;exitDy=0;entryX=0.5;entryY=0;entryDx=0;entryDy=0;fillColor=#fff2cc;strokeColor=#d6b656;" parent="1" source="MVEOqqsNRCNZb2ut2GVW-19" target="MVEOqqsNRCNZb2ut2GVW-20" edge="1">
          <mxGeometry relative="1" as="geometry" />
        </mxCell>
        <mxCell id="MVEOqqsNRCNZb2ut2GVW-19" value="Начало" style="rounded=1;whiteSpace=wrap;html=1;fillColor=#f5f5f5;fontColor=#333333;strokeColor=#666666;" parent="1" vertex="1">
          <mxGeometry x="593" y="3750" width="120" height="60" as="geometry" />
        </mxCell>
        <mxCell id="MVEOqqsNRCNZb2ut2GVW-23" style="edgeStyle=orthogonalEdgeStyle;rounded=0;orthogonalLoop=1;jettySize=auto;html=1;entryX=0.5;entryY=0;entryDx=0;entryDy=0;fillColor=#fff2cc;strokeColor=#d6b656;" parent="1" source="MVEOqqsNRCNZb2ut2GVW-20" target="MVEOqqsNRCNZb2ut2GVW-27" edge="1">
          <mxGeometry relative="1" as="geometry" />
        </mxCell>
        <mxCell id="MVEOqqsNRCNZb2ut2GVW-20" value="Разделяем полученный массив данных, путём удаления тишины" style="rounded=0;whiteSpace=wrap;html=1;fillColor=#f5f5f5;fontColor=#333333;strokeColor=#666666;" parent="1" vertex="1">
          <mxGeometry x="550.5" y="3832" width="205" height="70" as="geometry" />
        </mxCell>
        <mxCell id="MVEOqqsNRCNZb2ut2GVW-25" style="edgeStyle=orthogonalEdgeStyle;rounded=0;orthogonalLoop=1;jettySize=auto;html=1;entryX=0.5;entryY=0;entryDx=0;entryDy=0;fillColor=#ffe6cc;strokeColor=#d79b00;" parent="1" source="MVEOqqsNRCNZb2ut2GVW-22" target="MVEOqqsNRCNZb2ut2GVW-24" edge="1">
          <mxGeometry relative="1" as="geometry" />
        </mxCell>
        <mxCell id="MVEOqqsNRCNZb2ut2GVW-22" value="Получаем траекторию движения с помощью оптимального алгоритма" style="rounded=0;whiteSpace=wrap;html=1;fillColor=#f5f5f5;fontColor=#333333;strokeColor=#666666;" parent="1" vertex="1">
          <mxGeometry x="549.5" y="4034" width="206" height="60" as="geometry" />
        </mxCell>
        <mxCell id="MVEOqqsNRCNZb2ut2GVW-28" style="edgeStyle=orthogonalEdgeStyle;rounded=0;orthogonalLoop=1;jettySize=auto;html=1;fillColor=#ffe6cc;strokeColor=#d79b00;" parent="1" source="MVEOqqsNRCNZb2ut2GVW-24" target="MVEOqqsNRCNZb2ut2GVW-26" edge="1">
          <mxGeometry relative="1" as="geometry" />
        </mxCell>
        <mxCell id="MVEOqqsNRCNZb2ut2GVW-24" value="Сравниваем полученную траекторию движения с траекториями известных движений и выбираем самое подходящее движение" style="rounded=0;whiteSpace=wrap;html=1;fillColor=#f5f5f5;fontColor=#333333;strokeColor=#666666;" parent="1" vertex="1">
          <mxGeometry x="548" y="4120" width="209" height="85" as="geometry" />
        </mxCell>
        <mxCell id="MVEOqqsNRCNZb2ut2GVW-29" style="edgeStyle=orthogonalEdgeStyle;rounded=0;orthogonalLoop=1;jettySize=auto;html=1;entryX=1;entryY=0.5;entryDx=0;entryDy=0;fillColor=#fff2cc;strokeColor=#d6b656;" parent="1" source="MVEOqqsNRCNZb2ut2GVW-26" target="MVEOqqsNRCNZb2ut2GVW-27" edge="1">
          <mxGeometry relative="1" as="geometry">
            <Array as="points">
              <mxPoint x="783" y="4267" />
              <mxPoint x="783" y="3968" />
            </Array>
          </mxGeometry>
        </mxCell>
        <mxCell id="MVEOqqsNRCNZb2ut2GVW-26" value="Получаем название движения&amp;nbsp;" style="rounded=0;whiteSpace=wrap;html=1;fillColor=#f5f5f5;strokeColor=#666666;fontColor=#333333;" parent="1" vertex="1">
          <mxGeometry x="548" y="4237" width="208" height="60" as="geometry" />
        </mxCell>
        <mxCell id="ZVdsV8nFcNDab4a7GRcG-11" style="edgeStyle=orthogonalEdgeStyle;rounded=0;orthogonalLoop=1;jettySize=auto;html=1;entryX=0.5;entryY=0;entryDx=0;entryDy=0;fillColor=#fff2cc;strokeColor=#d6b656;" parent="1" source="MVEOqqsNRCNZb2ut2GVW-27" target="MVEOqqsNRCNZb2ut2GVW-22" edge="1">
          <mxGeometry relative="1" as="geometry" />
        </mxCell>
        <mxCell id="ZVdsV8nFcNDab4a7GRcG-13" style="edgeStyle=orthogonalEdgeStyle;rounded=0;orthogonalLoop=1;jettySize=auto;html=1;entryX=0;entryY=0.5;entryDx=0;entryDy=0;fillColor=#fff2cc;strokeColor=#d6b656;" parent="1" source="MVEOqqsNRCNZb2ut2GVW-27" target="ZVdsV8nFcNDab4a7GRcG-22" edge="1">
          <mxGeometry relative="1" as="geometry">
            <Array as="points">
              <mxPoint x="525" y="3968" />
              <mxPoint x="525" y="4340" />
            </Array>
          </mxGeometry>
        </mxCell>
        <mxCell id="MVEOqqsNRCNZb2ut2GVW-27" value="i=0;&lt;br&gt;i&amp;lt;количество траекторий;&lt;br&gt;i++" style="rhombus;whiteSpace=wrap;html=1;fillColor=#f5f5f5;fontColor=#333333;strokeColor=#666666;" parent="1" vertex="1">
          <mxGeometry x="554.5" y="3928" width="197" height="80" as="geometry" />
        </mxCell>
        <mxCell id="ZVdsV8nFcNDab4a7GRcG-1" value="WebSocket Server" style="rounded=0;whiteSpace=wrap;html=1;" parent="1" vertex="1">
          <mxGeometry x="602" y="417" width="76" height="29" as="geometry" />
        </mxCell>
        <mxCell id="ZVdsV8nFcNDab4a7GRcG-2" value="WebSocket&lt;div&gt;Client&lt;/div&gt;" style="rounded=0;whiteSpace=wrap;html=1;" parent="1" vertex="1">
          <mxGeometry x="605" y="497" width="73" height="29" as="geometry" />
        </mxCell>
        <mxCell id="ZVdsV8nFcNDab4a7GRcG-3" value="Фитнес-трекер" style="text;html=1;strokeColor=none;fillColor=none;align=center;verticalAlign=middle;whiteSpace=wrap;rounded=0;" parent="1" vertex="1">
          <mxGeometry x="473" y="552" width="210" height="30" as="geometry" />
        </mxCell>
        <mxCell id="ZVdsV8nFcNDab4a7GRcG-4" value="Мобильное приложение" style="text;html=1;strokeColor=none;fillColor=none;align=center;verticalAlign=middle;whiteSpace=wrap;rounded=0;" parent="1" vertex="1">
          <mxGeometry x="473" y="350" width="210" height="30" as="geometry" />
        </mxCell>
        <mxCell id="ZVdsV8nFcNDab4a7GRcG-5" value="Акселерометр" style="rounded=0;whiteSpace=wrap;html=1;" parent="1" vertex="1">
          <mxGeometry x="480" y="498" width="88" height="28" as="geometry" />
        </mxCell>
        <mxCell id="ZVdsV8nFcNDab4a7GRcG-6" value="RestApi Client" style="rounded=0;whiteSpace=wrap;html=1;" parent="1" vertex="1">
          <mxGeometry x="492" y="417" width="92" height="29" as="geometry" />
        </mxCell>
        <mxCell id="ZVdsV8nFcNDab4a7GRcG-7" value="Серверное приложение" style="text;html=1;strokeColor=none;fillColor=none;align=center;verticalAlign=middle;whiteSpace=wrap;rounded=0;" parent="1" vertex="1">
          <mxGeometry x="265" y="215" width="225" height="25" as="geometry" />
        </mxCell>
        <mxCell id="ZVdsV8nFcNDab4a7GRcG-9" value="Blazor" style="rounded=0;whiteSpace=wrap;html=1;" parent="1" vertex="1">
          <mxGeometry x="390" y="295" width="92" height="29" as="geometry" />
        </mxCell>
        <mxCell id="ZVdsV8nFcNDab4a7GRcG-10" value="Web Api controller" style="rounded=0;whiteSpace=wrap;html=1;" parent="1" vertex="1">
          <mxGeometry x="278" y="295" width="106" height="29" as="geometry" />
        </mxCell>
        <mxCell id="ZVdsV8nFcNDab4a7GRcG-12" value="Конец" style="rounded=1;whiteSpace=wrap;html=1;fillColor=#f5f5f5;fontColor=#333333;strokeColor=#666666;" parent="1" vertex="1">
          <mxGeometry x="607.5" y="4401" width="91" height="60" as="geometry" />
        </mxCell>
        <mxCell id="ZVdsV8nFcNDab4a7GRcG-17" style="edgeStyle=orthogonalEdgeStyle;rounded=0;orthogonalLoop=1;jettySize=auto;html=1;entryX=0.5;entryY=0;entryDx=0;entryDy=0;fillColor=#fff2cc;strokeColor=#d6b656;" parent="1" source="ZVdsV8nFcNDab4a7GRcG-15" target="ZVdsV8nFcNDab4a7GRcG-16" edge="1">
          <mxGeometry relative="1" as="geometry" />
        </mxCell>
        <mxCell id="ZVdsV8nFcNDab4a7GRcG-15" value="Отправка полученных данных на сервер" style="rounded=0;whiteSpace=wrap;html=1;fillColor=#f5f5f5;fontColor=#333333;strokeColor=#666666;" parent="1" vertex="1">
          <mxGeometry x="114" y="4274" width="120" height="60" as="geometry" />
        </mxCell>
        <mxCell id="ZVdsV8nFcNDab4a7GRcG-16" value="Конец" style="rounded=1;whiteSpace=wrap;html=1;fillColor=#f5f5f5;fontColor=#333333;strokeColor=#666666;" parent="1" vertex="1">
          <mxGeometry x="114" y="4353" width="120" height="60" as="geometry" />
        </mxCell>
        <mxCell id="ZVdsV8nFcNDab4a7GRcG-20" style="edgeStyle=orthogonalEdgeStyle;rounded=0;orthogonalLoop=1;jettySize=auto;html=1;entryX=0.5;entryY=0;entryDx=0;entryDy=0;fillColor=#fff2cc;strokeColor=#d6b656;" parent="1" source="ZVdsV8nFcNDab4a7GRcG-19" target="nKgSE3EkpWKNaFI7mvdM-74" edge="1">
          <mxGeometry relative="1" as="geometry" />
        </mxCell>
        <mxCell id="ZVdsV8nFcNDab4a7GRcG-19" value="Начало" style="rounded=1;whiteSpace=wrap;html=1;fillColor=#f5f5f5;fontColor=#333333;strokeColor=#666666;" parent="1" vertex="1">
          <mxGeometry x="359" y="3750" width="120" height="60" as="geometry" />
        </mxCell>
        <mxCell id="ZVdsV8nFcNDab4a7GRcG-21" value="Запись продолжается?" style="rhombus;whiteSpace=wrap;html=1;fillColor=#f5f5f5;fontColor=#333333;strokeColor=#666666;" parent="1" vertex="1">
          <mxGeometry x="71" y="4122" width="206" height="80" as="geometry" />
        </mxCell>
        <mxCell id="ZVdsV8nFcNDab4a7GRcG-23" style="edgeStyle=orthogonalEdgeStyle;rounded=0;orthogonalLoop=1;jettySize=auto;html=1;entryX=0.5;entryY=0;entryDx=0;entryDy=0;fillColor=#fff2cc;strokeColor=#d6b656;" parent="1" source="ZVdsV8nFcNDab4a7GRcG-22" target="ZVdsV8nFcNDab4a7GRcG-12" edge="1">
          <mxGeometry relative="1" as="geometry" />
        </mxCell>
        <mxCell id="ZVdsV8nFcNDab4a7GRcG-22" value="Группируем движения по названиям и подсчитываем их количество" style="rounded=0;whiteSpace=wrap;html=1;fillColor=#f5f5f5;fontColor=#333333;strokeColor=#666666;" parent="1" vertex="1">
          <mxGeometry x="548" y="4310" width="210" height="60" as="geometry" />
        </mxCell>
        <mxCell id="ZVdsV8nFcNDab4a7GRcG-34" value="Преобразователь данных" style="rounded=0;whiteSpace=wrap;html=1;" parent="1" vertex="1">
          <mxGeometry x="278" y="261" width="158" height="29" as="geometry" />
        </mxCell>
        <mxCell id="ZVdsV8nFcNDab4a7GRcG-36" value="Серверное приложение" style="swimlane;whiteSpace=wrap;html=1;" parent="1" vertex="1">
          <mxGeometry x="39" y="1328" width="963" height="605" as="geometry" />
        </mxCell>
        <mxCell id="nKgSE3EkpWKNaFI7mvdM-1" value="Подсистема хранения данных" style="swimlane;whiteSpace=wrap;html=1;" parent="ZVdsV8nFcNDab4a7GRcG-36" vertex="1">
          <mxGeometry x="17" y="32" width="294" height="439" as="geometry" />
        </mxCell>
        <mxCell id="nKgSE3EkpWKNaFI7mvdM-2" value="Лингвистическое обеспечение" style="swimlane;whiteSpace=wrap;html=1;" parent="nKgSE3EkpWKNaFI7mvdM-1" vertex="1">
          <mxGeometry x="19" y="36" width="260" height="67" as="geometry" />
        </mxCell>
        <mxCell id="nKgSE3EkpWKNaFI7mvdM-3" value="SQL-запросы" style="text;html=1;align=left;verticalAlign=middle;resizable=0;points=[];autosize=1;strokeColor=none;fillColor=none;" parent="nKgSE3EkpWKNaFI7mvdM-2" vertex="1">
          <mxGeometry y="33" width="93" height="26" as="geometry" />
        </mxCell>
        <mxCell id="nKgSE3EkpWKNaFI7mvdM-4" value="Программное обеспечение" style="swimlane;whiteSpace=wrap;html=1;" parent="nKgSE3EkpWKNaFI7mvdM-1" vertex="1">
          <mxGeometry x="19" y="115" width="260" height="67" as="geometry" />
        </mxCell>
        <mxCell id="nKgSE3EkpWKNaFI7mvdM-5" value="SQL Server Management Studio" style="text;html=1;align=left;verticalAlign=middle;resizable=0;points=[];autosize=1;strokeColor=none;fillColor=none;" parent="nKgSE3EkpWKNaFI7mvdM-4" vertex="1">
          <mxGeometry y="30" width="191" height="26" as="geometry" />
        </mxCell>
        <mxCell id="nKgSE3EkpWKNaFI7mvdM-6" value="Методологическое обеспечение" style="swimlane;whiteSpace=wrap;html=1;" parent="nKgSE3EkpWKNaFI7mvdM-1" vertex="1">
          <mxGeometry x="19" y="194.5" width="259" height="96.5" as="geometry" />
        </mxCell>
        <mxCell id="nKgSE3EkpWKNaFI7mvdM-7" value="Документация&amp;nbsp;SQL Server Management &lt;br&gt;Studio" style="text;html=1;align=left;verticalAlign=middle;resizable=0;points=[];autosize=1;strokeColor=none;fillColor=none;" parent="nKgSE3EkpWKNaFI7mvdM-6" vertex="1">
          <mxGeometry y="27.75" width="237" height="41" as="geometry" />
        </mxCell>
        <mxCell id="nKgSE3EkpWKNaFI7mvdM-8" value="Документация&amp;nbsp;SQL" style="text;html=1;align=left;verticalAlign=middle;resizable=0;points=[];autosize=1;strokeColor=none;fillColor=none;" parent="nKgSE3EkpWKNaFI7mvdM-6" vertex="1">
          <mxGeometry y="64.5" width="125" height="26" as="geometry" />
        </mxCell>
        <mxCell id="nKgSE3EkpWKNaFI7mvdM-9" value="Информационное обеспечение" style="swimlane;whiteSpace=wrap;html=1;" parent="nKgSE3EkpWKNaFI7mvdM-1" vertex="1">
          <mxGeometry x="19" y="307" width="260" height="120" as="geometry" />
        </mxCell>
        <mxCell id="nKgSE3EkpWKNaFI7mvdM-11" value="Таблицы:&lt;br&gt;— Users&lt;br&gt;— Workouts&lt;br&gt;— Posts&lt;br&gt;— Casts&lt;br&gt;— Exercises" style="text;html=1;strokeColor=none;fillColor=none;align=left;verticalAlign=middle;whiteSpace=wrap;rounded=0;" parent="nKgSE3EkpWKNaFI7mvdM-9" vertex="1">
          <mxGeometry y="29" width="179.5" height="91" as="geometry" />
        </mxCell>
        <mxCell id="nKgSE3EkpWKNaFI7mvdM-12" value="Подсистема обработки HTTP-запросов" style="swimlane;whiteSpace=wrap;html=1;" parent="ZVdsV8nFcNDab4a7GRcG-36" vertex="1">
          <mxGeometry x="337" y="33" width="294" height="441" as="geometry" />
        </mxCell>
        <mxCell id="nKgSE3EkpWKNaFI7mvdM-13" value="Лингвистическое обеспечение" style="swimlane;whiteSpace=wrap;html=1;" parent="nKgSE3EkpWKNaFI7mvdM-12" vertex="1">
          <mxGeometry x="19" y="36" width="260" height="53" as="geometry" />
        </mxCell>
        <mxCell id="nKgSE3EkpWKNaFI7mvdM-14" value="С#" style="text;html=1;align=left;verticalAlign=middle;resizable=0;points=[];autosize=1;strokeColor=none;fillColor=none;" parent="nKgSE3EkpWKNaFI7mvdM-13" vertex="1">
          <mxGeometry y="24" width="33" height="26" as="geometry" />
        </mxCell>
        <mxCell id="nKgSE3EkpWKNaFI7mvdM-15" value="Программное обеспечение" style="swimlane;whiteSpace=wrap;html=1;" parent="nKgSE3EkpWKNaFI7mvdM-12" vertex="1">
          <mxGeometry x="19" y="101" width="260" height="67" as="geometry" />
        </mxCell>
        <mxCell id="nKgSE3EkpWKNaFI7mvdM-16" value="ASP NET" style="text;html=1;align=left;verticalAlign=middle;resizable=0;points=[];autosize=1;strokeColor=none;fillColor=none;" parent="nKgSE3EkpWKNaFI7mvdM-15" vertex="1">
          <mxGeometry y="30" width="69" height="26" as="geometry" />
        </mxCell>
        <mxCell id="nKgSE3EkpWKNaFI7mvdM-17" value="Методологическое обеспечение" style="swimlane;whiteSpace=wrap;html=1;" parent="nKgSE3EkpWKNaFI7mvdM-12" vertex="1">
          <mxGeometry x="19" y="179" width="259" height="53" as="geometry" />
        </mxCell>
        <mxCell id="nKgSE3EkpWKNaFI7mvdM-18" value="Документация C#" style="text;html=1;align=left;verticalAlign=middle;resizable=0;points=[];autosize=1;strokeColor=none;fillColor=none;" parent="nKgSE3EkpWKNaFI7mvdM-17" vertex="1">
          <mxGeometry y="23" width="117" height="26" as="geometry" />
        </mxCell>
        <mxCell id="nKgSE3EkpWKNaFI7mvdM-23" value="Подсистема обработки данных" style="swimlane;whiteSpace=wrap;html=1;" parent="ZVdsV8nFcNDab4a7GRcG-36" vertex="1">
          <mxGeometry x="649" y="34" width="294" height="441" as="geometry" />
        </mxCell>
        <mxCell id="nKgSE3EkpWKNaFI7mvdM-24" value="Лингвистическое обеспечение" style="swimlane;whiteSpace=wrap;html=1;" parent="nKgSE3EkpWKNaFI7mvdM-23" vertex="1">
          <mxGeometry x="11" y="33" width="260" height="67" as="geometry" />
        </mxCell>
        <mxCell id="nKgSE3EkpWKNaFI7mvdM-25" value="С#, Python" style="text;html=1;align=left;verticalAlign=middle;resizable=0;points=[];autosize=1;strokeColor=none;fillColor=none;" parent="nKgSE3EkpWKNaFI7mvdM-24" vertex="1">
          <mxGeometry y="33" width="77" height="26" as="geometry" />
        </mxCell>
        <mxCell id="nKgSE3EkpWKNaFI7mvdM-26" value="Программное обеспечение" style="swimlane;whiteSpace=wrap;html=1;" parent="nKgSE3EkpWKNaFI7mvdM-23" vertex="1">
          <mxGeometry x="11" y="105" width="260" height="67" as="geometry" />
        </mxCell>
        <mxCell id="nKgSE3EkpWKNaFI7mvdM-27" value=".NET" style="text;html=1;align=left;verticalAlign=middle;resizable=0;points=[];autosize=1;strokeColor=none;fillColor=none;" parent="nKgSE3EkpWKNaFI7mvdM-26" vertex="1">
          <mxGeometry y="30" width="45" height="26" as="geometry" />
        </mxCell>
        <mxCell id="nKgSE3EkpWKNaFI7mvdM-28" value="Методологическое обеспечение" style="swimlane;whiteSpace=wrap;html=1;" parent="nKgSE3EkpWKNaFI7mvdM-23" vertex="1">
          <mxGeometry x="12" y="176" width="259" height="70.5" as="geometry" />
        </mxCell>
        <mxCell id="nKgSE3EkpWKNaFI7mvdM-29" value="Документация C#" style="text;html=1;align=left;verticalAlign=middle;resizable=0;points=[];autosize=1;strokeColor=none;fillColor=none;" parent="nKgSE3EkpWKNaFI7mvdM-28" vertex="1">
          <mxGeometry y="22.25" width="117" height="26" as="geometry" />
        </mxCell>
        <mxCell id="ZVdsV8nFcNDab4a7GRcG-50" value="Документация Python" style="text;html=1;align=left;verticalAlign=middle;resizable=0;points=[];autosize=1;strokeColor=none;fillColor=none;" parent="nKgSE3EkpWKNaFI7mvdM-28" vertex="1">
          <mxGeometry y="44.5" width="139" height="26" as="geometry" />
        </mxCell>
        <mxCell id="nKgSE3EkpWKNaFI7mvdM-31" value="Математическое обеспечение" style="swimlane;whiteSpace=wrap;html=1;" parent="nKgSE3EkpWKNaFI7mvdM-23" vertex="1">
          <mxGeometry x="12" y="257" width="260" height="106.5" as="geometry" />
        </mxCell>
        <mxCell id="nKgSE3EkpWKNaFI7mvdM-32" value="Алгоритм фильтрации данных" style="text;html=1;align=left;verticalAlign=middle;resizable=0;points=[];autosize=1;strokeColor=none;fillColor=none;" parent="nKgSE3EkpWKNaFI7mvdM-31" vertex="1">
          <mxGeometry y="24" width="187" height="26" as="geometry" />
        </mxCell>
        <mxCell id="nKgSE3EkpWKNaFI7mvdM-37" value="Алгоритм распознавания движений" style="text;html=1;align=left;verticalAlign=middle;resizable=0;points=[];autosize=1;strokeColor=none;fillColor=none;" parent="nKgSE3EkpWKNaFI7mvdM-31" vertex="1">
          <mxGeometry y="45.5" width="216" height="26" as="geometry" />
        </mxCell>
        <mxCell id="ZVdsV8nFcNDab4a7GRcG-35" value="Численные методы интегрирования &lt;br&gt;и интерполирования" style="text;html=1;align=left;verticalAlign=middle;resizable=0;points=[];autosize=1;strokeColor=none;fillColor=none;" parent="nKgSE3EkpWKNaFI7mvdM-31" vertex="1">
          <mxGeometry y="65.5" width="219" height="41" as="geometry" />
        </mxCell>
        <mxCell id="nKgSE3EkpWKNaFI7mvdM-38" value="Техническое обеспечение" style="swimlane;whiteSpace=wrap;html=1;" parent="ZVdsV8nFcNDab4a7GRcG-36" vertex="1">
          <mxGeometry x="17" y="494" width="927" height="89" as="geometry" />
        </mxCell>
        <mxCell id="nKgSE3EkpWKNaFI7mvdM-39" value="ПК на базе AMD RYZEN 5 2600x с 16ГБ оперативной памяти" style="text;html=1;align=left;verticalAlign=middle;resizable=0;points=[];autosize=1;strokeColor=none;fillColor=none;" parent="nKgSE3EkpWKNaFI7mvdM-38" vertex="1">
          <mxGeometry x="8" y="29" width="357" height="26" as="geometry" />
        </mxCell>
        <mxCell id="t0PKNFKbj3jleWJ-KIZI-2" value="Общесистемное ПО сервера: Windows 11, IIS Manager" style="text;html=1;strokeColor=none;fillColor=none;align=left;verticalAlign=middle;whiteSpace=wrap;rounded=0;" parent="nKgSE3EkpWKNaFI7mvdM-38" vertex="1">
          <mxGeometry x="8" y="55" width="1211" height="30" as="geometry" />
        </mxCell>
        <mxCell id="ZVdsV8nFcNDab4a7GRcG-37" value="Мобильное приложение" style="swimlane;whiteSpace=wrap;html=1;" parent="1" vertex="1">
          <mxGeometry x="348" y="1944" width="319" height="347" as="geometry" />
        </mxCell>
        <mxCell id="ZVdsV8nFcNDab4a7GRcG-42" value="Лингвистическое обеспечение" style="swimlane;whiteSpace=wrap;html=1;" parent="ZVdsV8nFcNDab4a7GRcG-37" vertex="1">
          <mxGeometry x="7" y="28" width="298" height="68" as="geometry" />
        </mxCell>
        <mxCell id="ZVdsV8nFcNDab4a7GRcG-43" value="С#&lt;br&gt;xaml" style="text;html=1;align=left;verticalAlign=middle;resizable=0;points=[];autosize=1;strokeColor=none;fillColor=none;" parent="ZVdsV8nFcNDab4a7GRcG-42" vertex="1">
          <mxGeometry x="2" y="24" width="43" height="41" as="geometry" />
        </mxCell>
        <mxCell id="ZVdsV8nFcNDab4a7GRcG-44" value="Программное обеспечение" style="swimlane;whiteSpace=wrap;html=1;" parent="ZVdsV8nFcNDab4a7GRcG-37" vertex="1">
          <mxGeometry x="8" y="103" width="298" height="67" as="geometry" />
        </mxCell>
        <mxCell id="ZVdsV8nFcNDab4a7GRcG-45" value="MAUI" style="text;html=1;align=left;verticalAlign=middle;resizable=0;points=[];autosize=1;strokeColor=none;fillColor=none;" parent="ZVdsV8nFcNDab4a7GRcG-44" vertex="1">
          <mxGeometry y="30" width="48" height="26" as="geometry" />
        </mxCell>
        <mxCell id="ZVdsV8nFcNDab4a7GRcG-46" value="Методологическое обеспечение" style="swimlane;whiteSpace=wrap;html=1;" parent="ZVdsV8nFcNDab4a7GRcG-37" vertex="1">
          <mxGeometry x="8" y="177" width="299" height="81" as="geometry" />
        </mxCell>
        <mxCell id="ZVdsV8nFcNDab4a7GRcG-47" value="Документация C#" style="text;html=1;align=left;verticalAlign=middle;resizable=0;points=[];autosize=1;strokeColor=none;fillColor=none;" parent="ZVdsV8nFcNDab4a7GRcG-46" vertex="1">
          <mxGeometry y="23" width="117" height="26" as="geometry" />
        </mxCell>
        <mxCell id="ZVdsV8nFcNDab4a7GRcG-48" value="Документация xaml" style="text;html=1;align=left;verticalAlign=middle;resizable=0;points=[];autosize=1;strokeColor=none;fillColor=none;" parent="ZVdsV8nFcNDab4a7GRcG-46" vertex="1">
          <mxGeometry y="49" width="127" height="26" as="geometry" />
        </mxCell>
        <mxCell id="ZVdsV8nFcNDab4a7GRcG-38" value="Техническое обеспечение" style="swimlane;whiteSpace=wrap;html=1;" parent="ZVdsV8nFcNDab4a7GRcG-37" vertex="1">
          <mxGeometry x="8" y="265" width="300" height="69" as="geometry" />
        </mxCell>
        <mxCell id="ZVdsV8nFcNDab4a7GRcG-39" value="Смартфон с системой Androind версии 7.0 и выше" style="text;html=1;align=left;verticalAlign=middle;resizable=0;points=[];autosize=1;strokeColor=none;fillColor=none;" parent="ZVdsV8nFcNDab4a7GRcG-38" vertex="1">
          <mxGeometry y="31" width="300" height="26" as="geometry" />
        </mxCell>
        <mxCell id="ZVdsV8nFcNDab4a7GRcG-52" value="Веб-клиент" style="swimlane;whiteSpace=wrap;html=1;" parent="1" vertex="1">
          <mxGeometry x="673.5" y="1944" width="321.5" height="272" as="geometry" />
        </mxCell>
        <mxCell id="ZVdsV8nFcNDab4a7GRcG-53" value="Лингвистическое обеспечение" style="swimlane;whiteSpace=wrap;html=1;" parent="ZVdsV8nFcNDab4a7GRcG-52" vertex="1">
          <mxGeometry x="10" y="27" width="298" height="68" as="geometry" />
        </mxCell>
        <mxCell id="ZVdsV8nFcNDab4a7GRcG-54" value="HTML&lt;br&gt;JavaScipt" style="text;html=1;align=left;verticalAlign=middle;resizable=0;points=[];autosize=1;strokeColor=none;fillColor=none;" parent="ZVdsV8nFcNDab4a7GRcG-53" vertex="1">
          <mxGeometry x="2" y="24" width="70" height="41" as="geometry" />
        </mxCell>
        <mxCell id="ZVdsV8nFcNDab4a7GRcG-55" value="Методологическое обеспечение" style="swimlane;whiteSpace=wrap;html=1;" parent="ZVdsV8nFcNDab4a7GRcG-52" vertex="1">
          <mxGeometry x="10" y="101" width="299" height="81" as="geometry" />
        </mxCell>
        <mxCell id="ZVdsV8nFcNDab4a7GRcG-56" value="Документация HTML" style="text;html=1;align=left;verticalAlign=middle;resizable=0;points=[];autosize=1;strokeColor=none;fillColor=none;" parent="ZVdsV8nFcNDab4a7GRcG-55" vertex="1">
          <mxGeometry y="23" width="134" height="26" as="geometry" />
        </mxCell>
        <mxCell id="ZVdsV8nFcNDab4a7GRcG-57" value="Документация JavaScript" style="text;html=1;align=left;verticalAlign=middle;resizable=0;points=[];autosize=1;strokeColor=none;fillColor=none;" parent="ZVdsV8nFcNDab4a7GRcG-55" vertex="1">
          <mxGeometry y="49" width="157" height="26" as="geometry" />
        </mxCell>
        <mxCell id="ZVdsV8nFcNDab4a7GRcG-58" value="Техническое обеспечение" style="swimlane;whiteSpace=wrap;html=1;" parent="ZVdsV8nFcNDab4a7GRcG-52" vertex="1">
          <mxGeometry x="10" y="189" width="300" height="69" as="geometry" />
        </mxCell>
        <mxCell id="ZVdsV8nFcNDab4a7GRcG-59" value="Устройство с возможностью выхода в интернет" style="text;html=1;align=left;verticalAlign=middle;resizable=0;points=[];autosize=1;strokeColor=none;fillColor=none;" parent="ZVdsV8nFcNDab4a7GRcG-58" vertex="1">
          <mxGeometry y="31" width="282" height="26" as="geometry" />
        </mxCell>
      </root>
    </mxGraphModel>
  </diagram>
</mxfile>
